<svg width="223" height="119" viewBox="0 0 223 119" fill="none" xmlns="http://www.w3.org/2000/svg">
<path d="M14.393 109.561L14.9775 106.55L16.0734 101.557L18.1921 90.617C18.2652 90.1764 18.6305 89.7359 19.0688 89.6625C19.6533 89.5156 20.2378 89.9562 20.3839 90.5436L21.9181 98.4H19.4341C18.7766 98.4 18.2652 98.8406 18.119 99.5014L17.4615 102.879C17.3154 103.687 17.8999 104.421 18.7766 104.421H23.0871L23.5254 106.55L24.1099 109.561C24.256 110.295 24.8405 110.735 25.5711 110.735H30.1007L25.7172 90.103C25.0597 87.0192 22.3565 84.8164 19.2149 84.8164C16.0734 84.8164 13.3702 87.0192 12.7127 90.103L8.3291 110.735H12.8588C13.6624 110.809 14.32 110.295 14.393 109.561Z" fill="white"/>
<path d="M34.9224 110.809H38.137V107.211V87.2392C38.137 85.9176 37.0411 84.8896 35.7991 84.8896H34.9224C33.6073 84.8896 32.5845 85.991 32.5845 87.2392V108.459C32.5114 109.781 33.6073 110.809 34.9224 110.809Z" fill="white"/>
<path d="M43.6897 90.3965C45.0048 90.3965 46.1737 89.5154 46.4659 88.2672C46.8312 86.4316 45.5162 84.8896 43.7628 84.8896C42.4477 84.8896 41.2787 85.7708 41.0596 87.019C40.6212 88.7812 41.9363 90.3965 43.6897 90.3965Z" fill="white"/>
<path d="M42.6665 110.809H44.7122C45.6619 110.809 46.4656 110.002 46.4656 109.047V93.3341C46.4656 92.453 45.735 91.7188 44.8583 91.7188H42.5204C41.6437 91.7188 40.9131 92.453 40.9131 93.3341V109.047C40.9131 110.002 41.7167 110.809 42.6665 110.809Z" fill="white"/>
<path d="M195.434 91.3516H192.876C192.219 91.3516 191.634 91.7921 191.488 92.4529L188.566 105.963H187.762L184.767 92.4529C184.621 91.7921 184.036 91.3516 183.379 91.3516H180.749C179.872 91.3516 179.141 92.2327 179.361 93.1138L182.867 108.166L183.233 109.781C183.379 110.442 183.963 110.883 184.621 110.883H186.593C186.886 110.883 187.178 111.176 187.105 111.543L186.082 115.582C185.644 117.271 186.886 118.886 188.639 118.886C189.224 118.886 189.808 118.666 190.246 118.299C190.685 117.931 191.05 117.417 191.196 116.83L193.242 108.239L196.749 93.2606C197.041 92.1592 196.383 91.3516 195.434 91.3516Z" fill="#0171FF"/>
<path d="M101.991 92.4525H98.3377V87.0925C98.3377 85.7708 97.2418 84.6694 95.9267 84.6694H95.1961C93.881 84.6694 92.7852 85.7708 92.7852 87.0925C92.7852 89.4421 92.7852 93.2602 92.7852 97.1517H101.844C104.328 97.1517 106.447 99.1342 106.374 101.631C106.374 102.805 105.863 103.907 105.059 104.641C104.255 105.449 103.16 105.963 101.991 105.963H98.2646V103.246C98.2646 101.998 97.2418 100.97 95.9998 100.97H95.05C93.808 100.97 92.7852 101.998 92.7852 103.246V105.963V110.735C93.1505 110.735 94.8308 110.735 94.8308 110.735H98.3377H102.064C105.132 110.735 107.397 110.001 108.931 108.459C110.465 106.917 111.196 104.714 111.196 101.777C111.196 98.767 110.392 96.4909 108.858 94.8755C107.251 93.2602 104.986 92.4525 101.991 92.4525Z" fill="white"/>
<path d="M147.434 84.7432H143.708H140.201C140.201 84.7432 138.521 84.7432 138.155 84.7432V89.5158V91.6451C138.155 93.1136 139.178 94.3618 140.639 94.5087C142.247 94.6555 143.635 93.4073 143.635 91.792V89.5892H147.361C148.603 89.5892 149.699 90.1032 150.429 90.9109C151.233 91.7185 151.671 92.7465 151.744 93.9213C151.817 96.4177 149.626 98.4002 147.215 98.4002H138.155C138.155 101.631 138.155 106.183 138.155 108.092C138.155 109.708 139.47 110.956 141.005 110.882C142.539 110.809 143.708 109.487 143.708 107.945V103.099H147.361C150.356 103.099 152.621 102.292 154.155 100.676C155.689 99.061 156.493 96.7849 156.493 93.7744C156.493 90.8374 155.763 88.6347 154.228 87.0928C152.767 85.5508 150.429 84.7432 147.434 84.7432Z" fill="#0171FF"/>
<path d="M210.484 98.5464H204.931C204.347 98.5464 203.762 98.1059 203.762 97.445C203.762 96.7108 204.347 96.1234 205.077 96.1234H212.237C213.114 96.1234 213.844 95.2423 213.625 94.3612L213.187 92.3787C213.041 91.7179 212.456 91.2773 211.799 91.2773H205.296C202.155 91.2773 199.306 93.6269 199.013 96.7842C198.648 100.382 201.424 103.466 204.931 103.466H209.899C210.411 103.466 210.849 103.833 210.922 104.42C210.995 105.228 210.337 105.962 209.461 105.962H200.255C199.598 105.962 199.013 106.403 198.94 107.064L198.502 109.193C198.356 110.001 199.013 110.808 199.817 110.808H209.388C212.821 110.808 215.671 107.945 215.671 104.494V103.906C215.817 100.969 213.406 98.5464 210.484 98.5464Z" fill="#0171FF"/>
<path d="M171.105 92.5998L166.721 92.5264C163.726 92.5264 161.461 93.334 159.927 94.9494C158.393 96.5647 157.589 98.8409 157.589 101.851C157.589 104.788 158.319 106.991 159.854 108.533C161.388 110.075 163.653 110.809 166.721 110.809H169.717C170.813 110.809 171.762 109.855 171.762 108.753C171.762 108.753 171.762 108.753 171.835 108.753L174.831 109.928C175.927 110.369 177.096 109.561 177.096 108.386L177.023 92.5998H171.105ZM171.178 103.393C171.178 104.862 170.009 105.963 168.621 105.963H166.721C165.479 105.963 164.456 105.449 163.653 104.641C162.849 103.834 162.411 102.806 162.338 101.631C162.265 99.1346 164.456 97.1521 166.94 97.1521H171.178C171.178 97.1521 171.251 97.1521 171.251 97.2256V103.393H171.178Z" fill="#0171FF"/>
<path d="M84.0189 92.673L79.6353 92.5996C76.6399 92.5996 74.3751 93.4073 72.8408 95.0226C71.3066 96.638 70.5029 98.9142 70.5029 101.925C70.5029 104.862 71.2335 107.064 72.7678 108.606C74.302 110.148 76.5668 110.882 79.6353 110.882H82.6308C83.7266 110.882 84.6764 109.928 84.6764 108.827C84.6764 108.827 84.6764 108.827 84.7495 108.827L87.7449 110.001C88.8408 110.442 90.0097 109.634 90.0097 108.459L89.9367 92.673H84.0189ZM84.0919 103.54C84.0919 105.008 82.923 106.11 81.5349 106.11H79.6353C78.3933 106.11 77.3705 105.596 76.5668 104.788C75.7632 103.98 75.3248 102.953 75.2518 101.778C75.1787 99.2813 77.3705 97.2988 79.8545 97.2988H84.0919C84.0919 97.2988 84.165 97.2988 84.165 97.3722V103.54H84.0919Z" fill="white"/>
<path d="M133.188 92.5996L127.27 92.673L122.886 92.5996C119.891 92.5996 117.626 93.4073 116.092 95.0226C114.558 96.638 113.754 98.9142 113.754 101.925C113.754 104.862 114.485 107.064 116.019 108.606C117.553 110.148 119.818 110.882 122.886 110.882H125.882C126.978 110.882 127.927 109.928 127.927 108.827C127.927 108.827 127.927 108.827 128 108.827L130.996 110.001C132.092 110.442 133.261 109.634 133.261 108.459L133.188 92.5996ZM127.416 103.393C127.416 104.862 126.247 105.963 124.859 105.963H122.959C121.717 105.963 120.695 105.449 119.891 104.641C119.087 103.834 118.649 102.806 118.576 101.631C118.503 99.1344 120.695 97.152 123.179 97.152H127.416C127.416 97.152 127.489 97.1519 127.489 97.2254V103.393H127.416Z" fill="white"/>
<path d="M58.5941 92.4528H54.9412V87.0928C54.9412 85.7711 53.8453 84.7432 52.6033 84.7432H51.7266C50.4115 84.7432 49.3887 85.8445 49.3887 87.0928C49.3887 89.4424 49.3887 93.2605 49.3887 97.152H58.448C60.932 97.152 63.0507 99.1345 62.9777 101.631C62.9777 102.806 62.4663 103.907 61.6626 104.641C60.859 105.449 59.7631 105.963 58.5941 105.963H54.8681V103.246C54.8681 101.998 53.8453 100.97 52.6033 100.97H51.6535C50.4115 100.97 49.3887 101.998 49.3887 103.246V105.963V110.736C49.754 110.736 51.4343 110.736 51.4343 110.736H54.9412H58.6672C61.7357 110.736 64.0005 110.001 65.5347 108.459C67.069 106.918 67.7996 104.715 67.7996 101.778C67.7996 98.7674 66.9959 96.4912 65.4617 94.8758C63.8544 93.2605 61.5896 92.4528 58.5941 92.4528Z" fill="white"/>
<path d="M145.378 60.8694H74.9495C68.9586 60.8694 64.1367 55.9499 64.1367 50.0025V10.8669C64.1367 4.84605 69.0317 0 74.9495 0H145.378C151.369 0 156.191 4.91948 156.191 10.8669V49.929C156.191 55.9499 151.296 60.8694 145.378 60.8694ZM74.8764 2.49645C70.2737 2.49645 66.5477 6.24113 66.5477 10.8669V49.929C66.5477 54.5548 70.2737 58.2995 74.8764 58.2995H145.305C149.908 58.2995 153.634 54.5548 153.634 49.929V10.8669C153.634 6.24113 149.908 2.49645 145.305 2.49645H74.8764Z" fill="#0171FF"/>
<path d="M154 9.98584H65.4521V18.3563H154V9.98584Z" fill="#0171FF"/>
<path d="M120.319 38.6218C120.319 38.8421 120.319 39.1358 120.319 39.3561C120.319 39.5029 120.319 39.6498 120.319 39.7966C120.319 39.87 120.319 39.9435 120.319 40.0169C120.319 39.9435 120.392 39.5029 120.319 39.7966C120.246 40.384 120.1 40.9714 119.881 41.4854C119.808 41.6322 119.808 41.7057 119.735 41.8525C119.735 41.9259 119.515 42.3665 119.662 41.9994C119.808 41.6322 119.588 42.1462 119.588 42.2196C119.515 42.3665 119.442 42.5133 119.369 42.5868C119.077 43.1007 118.785 43.6147 118.42 44.0553C118.2 44.349 118.712 43.6881 118.42 44.0553C118.346 44.1287 118.273 44.2755 118.2 44.349C117.981 44.5692 117.835 44.7895 117.616 45.0098C117.397 45.2301 117.251 45.3769 117.031 45.5238C116.885 45.5972 116.812 45.744 116.666 45.8175C116.447 45.9643 116.593 45.8909 116.666 45.8175C116.958 45.5972 116.666 45.8175 116.593 45.8909C116.155 46.258 115.643 46.5517 115.132 46.772C114.913 46.9188 114.62 46.9923 114.328 47.1391C114.109 47.2125 114.547 47.0657 114.547 47.0657C114.474 47.0657 114.401 47.1391 114.328 47.1391C114.182 47.2125 114.036 47.286 113.817 47.286C113.232 47.5062 112.721 47.6531 112.136 47.7265C111.99 47.7265 111.844 47.7999 111.698 47.7999C111.333 47.8734 111.844 47.7999 111.917 47.7999C111.844 47.7999 111.771 47.7999 111.698 47.7999C111.406 47.7999 111.114 47.8734 110.821 47.8734C110.237 47.8734 109.652 47.8734 109.068 47.7999C108.995 47.7999 108.922 47.7999 108.922 47.7999C108.63 47.7999 109.36 47.8734 109.141 47.7999C108.995 47.7999 108.849 47.7265 108.703 47.7265C108.41 47.6531 108.118 47.5797 107.753 47.5062C107.461 47.4328 107.241 47.3594 106.949 47.286C106.803 47.2125 106.657 47.2125 106.511 47.1391C106.438 47.1391 106.365 47.0657 106.292 47.0657C105.999 46.9923 106.438 47.1391 106.438 47.1391C105.926 46.8454 105.415 46.6251 104.904 46.3314C104.684 46.1846 104.392 46.0377 104.173 45.8909C104.1 45.8175 104.027 45.8175 104.027 45.744C103.881 45.5972 104.246 45.8909 104.246 45.8909C104.1 45.744 103.954 45.6706 103.881 45.5972C103.442 45.2301 103.077 44.8629 102.712 44.4224C102.566 44.2755 102.493 44.2021 102.42 44.0553C102.273 43.835 102.347 43.9818 102.42 44.0553C102.639 44.349 102.42 44.0553 102.347 43.9818C102.127 43.7616 101.981 43.4679 101.835 43.1742C101.689 42.8805 101.543 42.6602 101.397 42.3665C101.324 42.2196 101.251 42.0728 101.178 41.9259C101.104 41.7057 101.251 42.1462 101.251 42.1462C101.251 42.0728 101.178 41.9994 101.178 41.8525C100.958 41.2651 100.812 40.6043 100.666 40.0169C100.666 39.87 100.593 39.2092 100.666 39.9435C100.666 39.7966 100.666 39.6498 100.593 39.5029C100.593 39.2092 100.52 38.8421 100.52 38.5484C100.52 37.447 99.5703 36.4191 98.4744 36.4925C97.3785 36.5659 96.4287 37.3736 96.4287 38.5484C96.4287 41.2651 97.3054 44.0553 98.9127 46.1846C100.666 48.5342 103.004 50.2964 105.78 51.2509C111.114 53.0866 117.47 51.5446 121.123 47.2125C123.168 44.7895 124.41 41.7057 124.41 38.5484C124.41 37.447 123.461 36.4191 122.365 36.4925C121.269 36.6393 120.319 37.5204 120.319 38.6218Z" fill="#0171FF"/>
<path d="M98.6939 32.2337C101.155 32.2337 103.151 30.2285 103.151 27.7548C103.151 25.2812 101.155 23.2759 98.6939 23.2759C96.2326 23.2759 94.2373 25.2812 94.2373 27.7548C94.2373 30.2285 96.2326 32.2337 98.6939 32.2337Z" fill="#0171FF"/>
<path d="M124.484 29.5906H119.37C117.836 29.5906 116.594 28.3423 116.594 26.8004C116.594 25.2585 117.836 24.0103 119.37 24.0103H124.484C126.018 24.0103 127.26 25.2585 127.26 26.8004C127.26 28.4158 126.018 29.5906 124.484 29.5906Z" fill="#0171FF"/>
</svg>
