<svg width="223" height="119" viewBox="0 0 223 119" fill="none" xmlns="http://www.w3.org/2000/svg">
<path d="M14.3927 109.561L14.9771 106.55L16.073 101.557L18.1917 90.617C18.2648 90.1764 18.6301 89.7359 19.0684 89.6625C19.6529 89.5156 20.2374 89.9562 20.3835 90.5436L21.9177 98.4H19.4337C18.7762 98.4 18.2648 98.8406 18.1187 99.5014L17.4611 102.879C17.315 103.687 17.8995 104.421 18.7762 104.421H23.0867L23.5251 106.55L24.1095 109.561C24.2556 110.295 24.8401 110.735 25.5707 110.735H30.1004L25.7168 90.103C25.0593 87.0192 22.3561 84.8164 19.2146 84.8164C16.073 84.8164 13.3698 87.0192 12.7123 90.103L8.32874 110.735H12.8584C13.6621 110.809 14.3196 110.295 14.3927 109.561Z" fill="#0D0D12"/>
<path d="M34.9223 110.809H38.1369V107.211V87.2392C38.1369 85.9176 37.041 84.8896 35.799 84.8896H34.9223C33.6072 84.8896 32.5844 85.991 32.5844 87.2392V108.459C32.5113 109.781 33.6072 110.809 34.9223 110.809Z" fill="#0D0D12"/>
<path d="M43.6894 90.3965C45.0044 90.3965 46.1734 89.5154 46.4656 88.2672C46.8309 86.4316 45.5158 84.8896 43.7624 84.8896C42.4474 84.8896 41.2784 85.7708 41.0592 87.019C40.6209 88.7812 41.9359 90.3965 43.6894 90.3965Z" fill="#0D0D12"/>
<path d="M42.6665 110.809H44.7122C45.662 110.809 46.4656 110.001 46.4656 109.047V93.3336C46.4656 92.4525 45.735 91.7183 44.8583 91.7183H42.5204C41.6437 91.7183 40.9131 92.4525 40.9131 93.3336V109.047C40.9131 110.001 41.7168 110.809 42.6665 110.809Z" fill="#0D0D12"/>
<path d="M195.433 91.3511H192.876C192.218 91.3511 191.634 91.7916 191.488 92.4524L188.566 105.963H187.762L184.766 92.4524C184.62 91.7916 184.036 91.3511 183.378 91.3511H180.748C179.871 91.3511 179.141 92.2322 179.36 93.1133L182.867 108.165L183.232 109.781C183.378 110.442 183.963 110.882 184.62 110.882H186.593C186.885 110.882 187.177 111.176 187.104 111.543L186.082 115.581C185.643 117.27 186.885 118.885 188.639 118.885C189.223 118.885 189.808 118.665 190.246 118.298C190.684 117.931 191.05 117.417 191.196 116.83L193.241 108.239L196.748 93.2601C197.04 92.1588 196.383 91.3511 195.433 91.3511Z" fill="#2D31FA"/>
<path d="M101.991 92.4525H98.3376V87.0925C98.3376 85.7708 97.2417 84.6694 95.9266 84.6694H95.196C93.881 84.6694 92.7851 85.7708 92.7851 87.0925C92.7851 89.4421 92.7851 93.2602 92.7851 97.1517H101.844C104.328 97.1517 106.447 99.1342 106.374 101.631C106.374 102.805 105.863 103.907 105.059 104.641C104.255 105.449 103.16 105.963 101.991 105.963H98.2645V103.246C98.2645 101.998 97.2417 100.97 95.9997 100.97H95.0499C93.8079 100.97 92.7851 101.998 92.7851 103.246V105.963V110.735C93.1504 110.735 94.8308 110.735 94.8308 110.735H98.3376H102.064C105.132 110.735 107.397 110.001 108.931 108.459C110.465 106.917 111.196 104.714 111.196 101.777C111.196 98.767 110.392 96.4909 108.858 94.8755C107.251 93.2602 104.986 92.4525 101.991 92.4525Z" fill="#0D0D12"/>
<path d="M147.433 84.7432H143.707H140.2C140.2 84.7432 138.52 84.7432 138.155 84.7432V89.5158V91.6451C138.155 93.1136 139.178 94.3618 140.639 94.5087C142.246 94.6555 143.634 93.4073 143.634 91.792V89.5892H147.36C148.602 89.5892 149.698 90.1032 150.429 90.9109C151.232 91.7185 151.671 92.7465 151.744 93.9213C151.817 96.4177 149.625 98.4002 147.214 98.4002H138.155C138.155 101.631 138.155 106.183 138.155 108.092C138.155 109.708 139.47 110.956 141.004 110.882C142.538 110.809 143.707 109.487 143.707 107.945V103.099H147.36C150.356 103.099 152.62 102.292 154.155 100.676C155.689 99.061 156.493 96.7849 156.493 93.7744C156.493 90.8374 155.762 88.6347 154.228 87.0928C152.767 85.5508 150.429 84.7432 147.433 84.7432Z" fill="#2D31FA"/>
<path d="M210.484 98.5469H204.931C204.347 98.5469 203.762 98.1064 203.762 97.4455C203.762 96.7113 204.347 96.1239 205.077 96.1239H212.237C213.114 96.1239 213.844 95.2428 213.625 94.3617L213.187 92.3792C213.041 91.7184 212.456 91.2778 211.799 91.2778H205.296C202.155 91.2778 199.306 93.6274 199.013 96.7847C198.648 100.383 201.424 103.466 204.931 103.466H209.899C210.41 103.466 210.849 103.834 210.922 104.421C210.995 105.229 210.337 105.963 209.461 105.963H200.255C199.598 105.963 199.013 106.403 198.94 107.064L198.502 109.194C198.356 110.001 199.013 110.809 199.817 110.809H209.388C212.821 110.809 215.671 107.945 215.671 104.494V103.907C215.817 100.97 213.406 98.5469 210.484 98.5469Z" fill="#2D31FA"/>
<path d="M171.105 92.5993L166.721 92.5259C163.726 92.5259 161.461 93.3335 159.926 94.9489C158.392 96.5642 157.589 98.8404 157.589 101.851C157.589 104.788 158.319 106.991 159.853 108.533C161.388 110.074 163.653 110.809 166.721 110.809H169.716C170.812 110.809 171.762 109.854 171.762 108.753C171.762 108.753 171.762 108.753 171.835 108.753L174.831 109.928C175.926 110.368 177.095 109.56 177.095 108.386L177.022 92.5993H171.105ZM171.178 103.393C171.178 104.861 170.009 105.963 168.621 105.963H166.721C165.479 105.963 164.456 105.449 163.653 104.641C162.849 103.833 162.41 102.805 162.337 101.631C162.264 99.1341 164.456 97.1516 166.94 97.1516H171.178C171.178 97.1516 171.251 97.1516 171.251 97.2251V103.393H171.178Z" fill="#2D31FA"/>
<path d="M84.018 92.673L79.6345 92.5996C76.639 92.5996 74.3742 93.4073 72.84 95.0226C71.3057 96.638 70.5021 98.9142 70.5021 101.925C70.5021 104.862 71.2327 107.064 72.7669 108.606C74.3012 110.148 76.566 110.882 79.6345 110.882H82.6299C83.7258 110.882 84.6756 109.928 84.6756 108.827C84.6756 108.827 84.6756 108.827 84.7486 108.827L87.744 110.001C88.8399 110.442 90.0089 109.634 90.0089 108.459L89.9358 92.673H84.018ZM84.0911 103.54C84.0911 105.008 82.9221 106.11 81.534 106.11H79.6345C78.3925 106.11 77.3696 105.596 76.566 104.788C75.7623 103.98 75.324 102.953 75.2509 101.778C75.1779 99.2813 77.3696 97.2988 79.8537 97.2988H84.0911C84.0911 97.2988 84.1641 97.2988 84.1641 97.3722V103.54H84.0911Z" fill="#0D0D12"/>
<path d="M133.187 92.5996L127.269 92.673L122.886 92.5996C119.89 92.5996 117.625 93.4073 116.091 95.0226C114.557 96.638 113.753 98.9142 113.753 101.925C113.753 104.862 114.484 107.064 116.018 108.606C117.552 110.148 119.817 110.882 122.886 110.882H125.881C126.977 110.882 127.927 109.928 127.927 108.827C127.927 108.827 127.927 108.827 128 108.827L130.995 110.001C132.091 110.442 133.26 109.634 133.26 108.459L133.187 92.5996ZM127.415 103.393C127.415 104.862 126.246 105.963 124.858 105.963H122.959C121.717 105.963 120.694 105.449 119.89 104.641C119.087 103.834 118.648 102.806 118.575 101.631C118.502 99.1344 120.694 97.152 123.178 97.152H127.415C127.415 97.152 127.488 97.1519 127.488 97.2254V103.393H127.415Z" fill="#0D0D12"/>
<path d="M58.5934 92.4528H54.9405V87.0928C54.9405 85.7711 53.8446 84.7432 52.6026 84.7432H51.7259C50.4108 84.7432 49.388 85.8445 49.388 87.0928C49.388 89.4424 49.388 93.2605 49.388 97.152H58.4473C60.9313 97.152 63.05 99.1345 62.977 101.631C62.977 102.806 62.4656 103.907 61.6619 104.641C60.8583 105.449 59.7624 105.963 58.5934 105.963H54.8674V103.246C54.8674 101.998 53.8446 100.97 52.6026 100.97H51.6528C50.4108 100.97 49.388 101.998 49.388 103.246V105.963V110.736C49.7533 110.736 51.4336 110.736 51.4336 110.736H54.9405H58.6665C61.735 110.736 63.9998 110.001 65.534 108.459C67.0683 106.918 67.7989 104.715 67.7989 101.778C67.7989 98.7674 66.9952 96.4912 65.461 94.8758C63.8537 93.2605 61.5889 92.4528 58.5934 92.4528Z" fill="#0D0D12"/>
<path d="M145.379 60.8694H74.9499C68.959 60.8694 64.1371 55.9499 64.1371 50.0025V10.8669C64.1371 4.84605 69.0321 0 74.9499 0H145.379C151.37 0 156.192 4.91948 156.192 10.8669V49.929C156.192 55.9499 151.297 60.8694 145.379 60.8694ZM74.8768 2.49645C70.2741 2.49645 66.5481 6.24113 66.5481 10.8669V49.929C66.5481 54.5548 70.2741 58.2995 74.8768 58.2995H145.306C149.909 58.2995 153.635 54.5548 153.635 49.929V10.8669C153.635 6.24113 149.909 2.49645 145.306 2.49645H74.8768Z" fill="#2D31FA"/>
<path d="M154 9.98584H65.4522V18.3563H154V9.98584Z" fill="#2D31FA"/>
<path d="M120.32 38.6218C120.32 38.8421 120.32 39.1358 120.32 39.3561C120.32 39.5029 120.32 39.6498 120.32 39.7966C120.32 39.87 120.32 39.9435 120.32 40.0169C120.32 39.9435 120.393 39.5029 120.32 39.7966C120.247 40.384 120.1 40.9714 119.881 41.4854C119.808 41.6322 119.808 41.7057 119.735 41.8525C119.735 41.9259 119.516 42.3665 119.662 41.9994C119.808 41.6322 119.589 42.1462 119.589 42.2196C119.516 42.3665 119.443 42.5133 119.37 42.5868C119.078 43.1007 118.785 43.6147 118.42 44.0553C118.201 44.349 118.712 43.6881 118.42 44.0553C118.347 44.1287 118.274 44.2755 118.201 44.349C117.982 44.5692 117.836 44.7895 117.616 45.0098C117.397 45.2301 117.251 45.3769 117.032 45.5238C116.886 45.5972 116.813 45.744 116.667 45.8175C116.447 45.9643 116.594 45.8909 116.667 45.8175C116.959 45.5972 116.667 45.8175 116.594 45.8909C116.155 46.258 115.644 46.5517 115.132 46.772C114.913 46.9188 114.621 46.9923 114.329 47.1391C114.11 47.2125 114.548 47.0657 114.548 47.0657C114.475 47.0657 114.402 47.1391 114.329 47.1391C114.183 47.2125 114.037 47.286 113.817 47.286C113.233 47.5062 112.721 47.6531 112.137 47.7265C111.991 47.7265 111.845 47.7999 111.699 47.7999C111.333 47.8734 111.845 47.7999 111.918 47.7999C111.845 47.7999 111.772 47.7999 111.699 47.7999C111.406 47.7999 111.114 47.8734 110.822 47.8734C110.237 47.8734 109.653 47.8734 109.069 47.7999C108.995 47.7999 108.922 47.7999 108.922 47.7999C108.63 47.7999 109.361 47.8734 109.142 47.7999C108.995 47.7999 108.849 47.7265 108.703 47.7265C108.411 47.6531 108.119 47.5797 107.753 47.5062C107.461 47.4328 107.242 47.3594 106.95 47.286C106.804 47.2125 106.658 47.2125 106.511 47.1391C106.438 47.1391 106.365 47.0657 106.292 47.0657C106 46.9923 106.438 47.1391 106.438 47.1391C105.927 46.8454 105.416 46.6251 104.904 46.3314C104.685 46.1846 104.393 46.0377 104.174 45.8909C104.1 45.8175 104.027 45.8175 104.027 45.744C103.881 45.5972 104.247 45.8909 104.247 45.8909C104.1 45.744 103.954 45.6706 103.881 45.5972C103.443 45.2301 103.078 44.8629 102.712 44.4224C102.566 44.2755 102.493 44.2021 102.42 44.0553C102.274 43.835 102.347 43.9818 102.42 44.0553C102.639 44.349 102.42 44.0553 102.347 43.9818C102.128 43.7616 101.982 43.4679 101.836 43.1742C101.69 42.8805 101.543 42.6602 101.397 42.3665C101.324 42.2196 101.251 42.0728 101.178 41.9259C101.105 41.7057 101.251 42.1462 101.251 42.1462C101.251 42.0728 101.178 41.9994 101.178 41.8525C100.959 41.2651 100.813 40.6043 100.667 40.0169C100.667 39.87 100.594 39.2092 100.667 39.9435C100.667 39.7966 100.667 39.6498 100.594 39.5029C100.594 39.2092 100.521 38.8421 100.521 38.5484C100.521 37.447 99.5708 36.4191 98.4749 36.4925C97.379 36.5659 96.4293 37.3736 96.4293 38.5484C96.4293 41.2651 97.306 44.0553 98.9133 46.1846C100.667 48.5342 103.005 50.2964 105.781 51.2509C111.114 53.0866 117.47 51.5446 121.123 47.2125C123.169 44.7895 124.411 41.7057 124.411 38.5484C124.411 37.447 123.461 36.4191 122.365 36.4925C121.269 36.6393 120.32 37.5204 120.32 38.6218Z" fill="#2D31FA"/>
<path d="M98.6941 32.2337C101.155 32.2337 103.151 30.2285 103.151 27.7548C103.151 25.2812 101.155 23.2759 98.6941 23.2759C96.2328 23.2759 94.2375 25.2812 94.2375 27.7548C94.2375 30.2285 96.2328 32.2337 98.6941 32.2337Z" fill="#2D31FA"/>
<path d="M124.484 29.5906H119.37C117.836 29.5906 116.594 28.3423 116.594 26.8004C116.594 25.2585 117.836 24.0103 119.37 24.0103H124.484C126.018 24.0103 127.26 25.2585 127.26 26.8004C127.26 28.4158 126.018 29.5906 124.484 29.5906Z" fill="#2D31FA"/>
</svg>
