<svg width="19" height="19" viewBox="0 0 19 19" fill="none" xmlns="http://www.w3.org/2000/svg">
<path fill-rule="evenodd" clip-rule="evenodd" d="M6.50631 3.3173L6.50623 3.31722C7.24419 2.23391 8.29576 1.14283 9.43825 0.115723C10.0997 0.908775 10.678 1.90255 10.8852 3.0496C11.7039 2.57915 12.6262 2.18783 13.5985 1.8617C14.2386 1.64704 14.899 1.46092 15.5642 1.29859C15.4819 2.78582 15.1998 4.36519 14.5549 5.78318V5.78322L14.555 5.78318C16.0749 5.8145 17.6063 6.2608 19 6.86801C17.887 8.29855 16.6385 9.63785 15.3144 10.5906L15.3144 10.5907L15.3145 10.5907C16.265 11.3758 16.9214 12.4734 17.3636 13.5747C15.8657 14.2037 14.3587 14.7014 13.022 14.8751L13.0218 14.8752L13.0221 14.8751C13.1943 15.8295 13.0221 16.8448 12.7317 17.7385C12.2552 17.6989 11.7846 17.6443 11.3318 17.5707C10.6387 17.4585 9.98525 17.3004 9.41327 17.0797L9.41272 17.0795L9.41327 17.0797C9.08952 17.7903 8.52815 18.4033 7.95597 18.884C7.20524 18.417 6.48949 17.8804 5.9814 17.2916L5.98124 17.2914L5.98144 17.2917C5.45759 17.6673 4.80846 17.8878 4.20601 18.0127C3.83345 17.4172 3.50146 16.7643 3.33921 16.1311C2.99408 16.1755 2.63154 16.1561 2.27937 16.0981C2.06479 16.0633 1.8527 16.0145 1.64987 15.9573C1.56714 15.3432 1.53797 14.6805 1.64382 14.0904V14.0901L1.64378 14.0903C1.13881 13.8968 0.652888 13.5376 0.234571 13.1544C0.392508 12.5736 0.620904 11.9636 0.952415 11.4765L0.952454 11.4765C0.564537 11.0257 0.249612 10.4149 0 9.80101C0.387085 9.30994 0.864302 8.82132 1.39266 8.51614L1.38843 8.49931C1.21026 7.78638 1.1664 6.92683 1.19007 6.07772C1.42373 5.96388 1.66915 5.86144 1.92236 5.77594C2.33934 5.63677 2.77147 5.54917 3.19065 5.55657H3.19073C3.36597 4.5871 3.7677 3.4982 4.24848 2.43459C5.03619 2.53743 5.86712 2.78851 6.50619 3.31722L6.50631 3.3173Z" fill="#7DCDF1"/>
<path fill-rule="evenodd" clip-rule="evenodd" d="M7.79888 5.72552C8.27444 5.1588 8.84472 4.58021 9.50999 4.01247C9.92146 3.65681 10.3852 3.33892 10.8852 3.0498C10.9658 3.49777 10.9889 3.96299 10.9372 4.43898C10.8524 5.22519 10.6824 5.98364 10.4462 6.69024C11.1753 6.38335 11.9896 6.1242 12.8721 5.93499C13.4223 5.81806 13.9859 5.77104 14.5549 5.78343C14.3111 6.31824 14.0171 6.82463 13.6683 7.28863C13.1057 8.03726 12.5105 8.68984 11.9118 9.24301C12.6275 9.354 13.3651 9.55422 14.0941 9.85256C14.5417 10.0361 14.9476 10.288 15.3145 10.5909C14.8244 10.9425 14.3246 11.2414 13.815 11.474C13.0002 11.8459 12.2237 12.1174 11.503 12.3023C11.9345 12.7317 12.3227 13.2325 12.6396 13.7947C12.8296 14.13 12.9531 14.4956 13.0221 14.8753C12.5245 14.9403 12.0474 14.961 11.5977 14.9271C10.87 14.8736 10.2103 14.7595 9.62324 14.5994C9.70941 15.1072 9.72742 15.6392 9.67015 16.1728C9.63607 16.4861 9.54475 16.7904 9.41321 17.08C9.05668 16.942 8.7287 16.7811 8.44029 16.5886C7.96454 16.2719 7.55359 15.9298 7.20858 15.5751C7.04146 15.988 6.81999 16.3834 6.54579 16.7463C6.38885 16.9566 6.19596 17.1368 5.98138 17.2918C5.78342 17.0636 5.61468 16.8246 5.485 16.5751C5.26599 16.1585 5.1033 15.7393 4.99029 15.3281C4.68866 15.5765 4.35474 15.7865 3.99603 15.9489C3.78977 16.044 3.56838 16.1009 3.33923 16.1313C3.27467 15.879 3.23655 15.628 3.23303 15.3818C3.22602 14.9638 3.26442 14.5584 3.3416 14.1749C2.99323 14.2427 2.63251 14.2644 2.2702 14.2376C2.05966 14.2222 1.84971 14.1703 1.64379 14.0905C1.68773 13.8517 1.75316 13.6221 1.84622 13.4122C2.00764 13.0507 2.20485 12.7171 2.4315 12.418C2.09976 12.3043 1.77276 12.1437 1.46064 11.9354C1.27745 11.813 1.10851 11.6574 0.952393 11.4768C1.0888 11.2771 1.24159 11.0978 1.41425 10.9493C1.71334 10.6927 2.03516 10.4818 2.3694 10.3175C2.11503 10.0213 1.88189 9.67827 1.67934 9.28921C1.55897 9.05867 1.46444 8.79786 1.39264 8.51579C1.61153 8.3907 1.83783 8.29626 2.0686 8.24706C2.46891 8.1614 2.87021 8.1369 3.26018 8.169C3.1596 7.69982 3.10185 7.18246 3.0933 6.62271C3.08677 6.2855 3.12287 5.92795 3.19067 5.55674C3.46589 5.56244 3.73261 5.61045 3.98186 5.71281C4.40873 5.88654 4.79946 6.12848 5.14565 6.42266C5.29876 5.83081 5.51892 5.19775 5.81552 4.53549C5.99733 4.12837 6.23131 3.72189 6.50617 3.31743C6.76402 3.52948 6.98679 3.78503 7.15807 4.08851C7.44762 4.60068 7.66026 5.15615 7.79888 5.72552Z" fill="#00AAE7"/>
<path fill-rule="evenodd" clip-rule="evenodd" d="M6.32998 8.01239C6.32091 8.03294 6.33908 8.03321 6.32998 8.01239V8.01101C6.64925 7.28699 7.14048 6.50934 7.79887 5.72559C7.99762 6.55312 8.03566 7.39719 7.92491 8.18078C7.91014 8.19309 7.90919 8.2079 7.91853 8.22508C7.92071 8.21035 7.92281 8.19559 7.92491 8.18078C8.59288 7.62503 9.44443 7.11096 10.4462 6.69031C10.1135 7.68409 9.65664 8.56288 9.13054 9.27348C9.29085 9.24161 9.45449 9.21573 9.62315 9.19471C10.3314 9.10735 11.1054 9.11796 11.9117 9.24344C11.087 10.0036 10.2512 10.5761 9.46751 10.9509C10.1809 11.2303 10.8829 11.687 11.503 12.3024C10.7019 12.5074 9.96044 12.6045 9.3028 12.6067C9.14554 12.607 8.99275 12.6018 8.84534 12.5917C9.22522 13.1576 9.49617 13.8464 9.62315 14.5993C8.80271 14.3741 8.11099 14.0538 7.57095 13.6699C7.5839 14.2943 7.46115 14.9495 7.20853 15.5751C6.7129 15.067 6.34189 14.523 6.10506 13.9788C6.09556 13.9569 6.11207 13.9657 6.10506 13.9788C5.83356 14.4862 5.45218 14.9489 4.99028 15.3281C4.82525 14.7215 4.76873 14.1227 4.81793 13.5668C4.38026 13.8644 3.87502 14.0722 3.34151 14.175C3.45836 13.5982 3.66542 13.0642 3.94829 12.6087C3.96056 12.5889 3.96546 12.6072 3.94829 12.6087C3.84778 12.6178 3.74776 12.6226 3.64622 12.6226C3.24303 12.6236 2.83271 12.5562 2.43145 12.4181C2.77543 11.9615 3.18472 11.5837 3.63091 11.3113C3.17685 11.0921 2.74772 10.7554 2.36938 10.3176C2.7788 10.116 3.20562 9.98673 3.62679 9.93472C3.73165 9.92122 3.83717 9.91378 3.94255 9.91077C3.95418 9.9289 3.96483 9.9101 3.94255 9.91077C3.6391 9.43925 3.40492 8.8497 3.26104 8.16918C3.85313 8.21902 4.41094 8.40075 4.88546 8.69592C4.88657 8.71619 4.90304 8.70684 4.88546 8.69592C4.84706 8.02886 4.93059 7.25837 5.14564 6.42277C5.66228 6.86258 6.06726 7.4114 6.32998 8.01101V8.01239Z" fill="#006FBA"/>
<path fill-rule="evenodd" clip-rule="evenodd" d="M7.92611 8.17153C7.92571 8.17454 7.92532 8.17759 7.92488 8.18059C7.38853 8.62725 6.9634 9.10716 6.66684 9.59673C6.67021 9.0656 6.55451 8.52497 6.32995 8.01221C6.06878 8.6056 5.9171 9.17342 5.88222 9.6928C5.6427 9.29186 5.29924 8.95302 4.88544 8.69577C4.91655 9.25485 5.03407 9.75217 5.23428 10.1641C4.84542 9.97887 4.40438 9.89633 3.94248 9.91058C3.93726 9.90247 3.92692 9.90354 3.91271 9.91157C3.92265 9.91122 3.93255 9.91086 3.94248 9.91058C4.20147 10.3146 4.51596 10.6389 4.87348 10.8608C4.44998 10.9109 4.02656 11.0691 3.63092 11.3112C4.02656 11.5033 4.44547 11.6055 4.86343 11.6034C4.5069 11.8606 4.19716 12.2058 3.9483 12.6085C4.38819 12.5688 4.81312 12.4404 5.19351 12.2242C4.98661 12.6266 4.86169 13.0833 4.81795 13.5665C5.20915 13.3017 5.54244 12.9691 5.79245 12.5835C5.79581 13.0431 5.90384 13.5147 6.10504 13.9786C6.34487 13.5298 6.49291 13.0531 6.53317 12.581C6.77269 12.9836 7.12498 13.3522 7.57089 13.6696C7.56004 13.1286 7.44755 12.6202 7.23364 12.1842C7.67851 12.4102 8.22302 12.5485 8.84527 12.5915C8.52445 12.1144 8.13135 11.7319 7.69205 11.4738C8.23763 11.4274 8.83941 11.2513 9.46744 10.9507C8.88383 10.7223 8.29689 10.6169 7.74537 10.6384C8.23395 10.3105 8.70467 9.84832 9.13051 9.27333C8.45815 9.40633 7.85866 9.63243 7.36086 9.93988C7.64142 9.42886 7.83329 8.83008 7.92488 8.18059C7.92726 8.17862 7.92757 8.17557 7.92611 8.17153Z" fill="white"/>
</svg>
